<mxfile host="app.diagrams.net" modified="2024-02-02T01:34:17.914Z" agent="Mozilla/5.0 (Windows NT 10.0; Win64; x64) AppleWebKit/537.36 (KHTML, like Gecko) Chrome/121.0.0.0 Safari/537.36" etag="ZwYOHuimc1-qFQD6w-ME" version="23.1.1" type="device">
  <diagram name="페이지-1" id="34at_bvpkJYoMiR2bePe">
    <mxGraphModel dx="1387" dy="1217" grid="0" gridSize="10" guides="1" tooltips="1" connect="1" arrows="1" fold="1" page="0" pageScale="1" pageWidth="827" pageHeight="1169" math="0" shadow="0">
      <root>
        <mxCell id="0" />
        <mxCell id="1" parent="0" />
        <mxCell id="SJ_4YM6VwGpysh3a31Bf-17" style="edgeStyle=none;curved=1;rounded=0;orthogonalLoop=1;jettySize=auto;html=1;exitX=0.5;exitY=1;exitDx=0;exitDy=0;entryX=0.5;entryY=0;entryDx=0;entryDy=0;fontSize=12;startSize=8;endSize=8;" edge="1" parent="1" source="SJ_4YM6VwGpysh3a31Bf-1" target="SJ_4YM6VwGpysh3a31Bf-2">
          <mxGeometry relative="1" as="geometry" />
        </mxCell>
        <mxCell id="SJ_4YM6VwGpysh3a31Bf-1" value="시작" style="rounded=1;whiteSpace=wrap;html=1;fontSize=16;arcSize=50;" vertex="1" parent="1">
          <mxGeometry x="254" y="-49" width="330" height="38" as="geometry" />
        </mxCell>
        <mxCell id="SJ_4YM6VwGpysh3a31Bf-70" style="edgeStyle=none;curved=1;rounded=0;orthogonalLoop=1;jettySize=auto;html=1;exitX=0.5;exitY=1;exitDx=0;exitDy=0;fontSize=12;startSize=8;endSize=8;" edge="1" parent="1" source="SJ_4YM6VwGpysh3a31Bf-2" target="SJ_4YM6VwGpysh3a31Bf-8">
          <mxGeometry relative="1" as="geometry" />
        </mxCell>
        <mxCell id="SJ_4YM6VwGpysh3a31Bf-2" value="ACC off" style="rounded=0;whiteSpace=wrap;html=1;fontSize=16;" vertex="1" parent="1">
          <mxGeometry x="359" y="17" width="120" height="60" as="geometry" />
        </mxCell>
        <mxCell id="SJ_4YM6VwGpysh3a31Bf-73" value="" style="edgeStyle=none;curved=1;rounded=0;orthogonalLoop=1;jettySize=auto;html=1;fontSize=12;startSize=8;endSize=8;" edge="1" parent="1" source="SJ_4YM6VwGpysh3a31Bf-8" target="SJ_4YM6VwGpysh3a31Bf-29">
          <mxGeometry relative="1" as="geometry" />
        </mxCell>
        <mxCell id="SJ_4YM6VwGpysh3a31Bf-8" value="sw2가 눌렸나?" style="rhombus;whiteSpace=wrap;html=1;fontSize=16;" vertex="1" parent="1">
          <mxGeometry x="328.5" y="129" width="181" height="80" as="geometry" />
        </mxCell>
        <mxCell id="SJ_4YM6VwGpysh3a31Bf-12" value="예" style="text;html=1;align=center;verticalAlign=middle;resizable=0;points=[];autosize=1;strokeColor=none;fillColor=none;fontSize=16;" vertex="1" parent="1">
          <mxGeometry x="669" y="220" width="34" height="31" as="geometry" />
        </mxCell>
        <mxCell id="SJ_4YM6VwGpysh3a31Bf-27" value="아니오" style="text;html=1;align=center;verticalAlign=middle;resizable=0;points=[];autosize=1;strokeColor=none;fillColor=none;fontSize=16;" vertex="1" parent="1">
          <mxGeometry x="339" y="350" width="66" height="31" as="geometry" />
        </mxCell>
        <mxCell id="SJ_4YM6VwGpysh3a31Bf-72" value="" style="edgeStyle=none;curved=1;rounded=0;orthogonalLoop=1;jettySize=auto;html=1;fontSize=12;startSize=8;endSize=8;" edge="1" parent="1" source="SJ_4YM6VwGpysh3a31Bf-29" target="SJ_4YM6VwGpysh3a31Bf-33">
          <mxGeometry relative="1" as="geometry" />
        </mxCell>
        <mxCell id="SJ_4YM6VwGpysh3a31Bf-29" value="sw1이 눌렸나?" style="rhombus;whiteSpace=wrap;html=1;fontSize=16;" vertex="1" parent="1">
          <mxGeometry x="568" y="129" width="181" height="80" as="geometry" />
        </mxCell>
        <mxCell id="SJ_4YM6VwGpysh3a31Bf-81" value="" style="edgeStyle=none;curved=1;rounded=0;orthogonalLoop=1;jettySize=auto;html=1;fontSize=12;startSize=8;endSize=8;entryX=0;entryY=0.5;entryDx=0;entryDy=0;" edge="1" parent="1" source="SJ_4YM6VwGpysh3a31Bf-33" target="SJ_4YM6VwGpysh3a31Bf-77">
          <mxGeometry relative="1" as="geometry" />
        </mxCell>
        <mxCell id="SJ_4YM6VwGpysh3a31Bf-83" value="" style="edgeStyle=none;curved=1;rounded=0;orthogonalLoop=1;jettySize=auto;html=1;fontSize=12;startSize=8;endSize=8;" edge="1" parent="1" source="SJ_4YM6VwGpysh3a31Bf-33" target="SJ_4YM6VwGpysh3a31Bf-77">
          <mxGeometry relative="1" as="geometry" />
        </mxCell>
        <mxCell id="SJ_4YM6VwGpysh3a31Bf-33" value="ACC standby" style="rounded=0;whiteSpace=wrap;html=1;fontSize=16;" vertex="1" parent="1">
          <mxGeometry x="598.5" y="272" width="120" height="60" as="geometry" />
        </mxCell>
        <mxCell id="SJ_4YM6VwGpysh3a31Bf-41" value="아니오" style="text;html=1;align=center;verticalAlign=middle;resizable=0;points=[];autosize=1;strokeColor=none;fillColor=none;fontSize=16;" vertex="1" parent="1">
          <mxGeometry x="579" y="91" width="66" height="31" as="geometry" />
        </mxCell>
        <mxCell id="SJ_4YM6VwGpysh3a31Bf-50" value="예" style="text;html=1;align=center;verticalAlign=middle;resizable=0;points=[];autosize=1;strokeColor=none;fillColor=none;fontSize=16;" vertex="1" parent="1">
          <mxGeometry x="282" y="133" width="34" height="31" as="geometry" />
        </mxCell>
        <mxCell id="SJ_4YM6VwGpysh3a31Bf-61" value="예" style="text;html=1;align=center;verticalAlign=middle;resizable=0;points=[];autosize=1;strokeColor=none;fillColor=none;fontSize=16;" vertex="1" parent="1">
          <mxGeometry x="436" y="481" width="34" height="31" as="geometry" />
        </mxCell>
        <mxCell id="SJ_4YM6VwGpysh3a31Bf-92" value="" style="edgeStyle=none;curved=1;rounded=0;orthogonalLoop=1;jettySize=auto;html=1;fontSize=12;startSize=8;endSize=8;" edge="1" parent="1" source="SJ_4YM6VwGpysh3a31Bf-75" target="SJ_4YM6VwGpysh3a31Bf-91">
          <mxGeometry relative="1" as="geometry" />
        </mxCell>
        <mxCell id="SJ_4YM6VwGpysh3a31Bf-75" value="ACC on" style="rounded=0;whiteSpace=wrap;html=1;fontSize=16;" vertex="1" parent="1">
          <mxGeometry x="359" y="517" width="120" height="60" as="geometry" />
        </mxCell>
        <mxCell id="SJ_4YM6VwGpysh3a31Bf-84" value="" style="edgeStyle=none;curved=1;rounded=0;orthogonalLoop=1;jettySize=auto;html=1;fontSize=12;startSize=8;endSize=8;" edge="1" parent="1" source="SJ_4YM6VwGpysh3a31Bf-77" target="SJ_4YM6VwGpysh3a31Bf-79">
          <mxGeometry relative="1" as="geometry" />
        </mxCell>
        <mxCell id="SJ_4YM6VwGpysh3a31Bf-77" value="sw2가 눌렸나?" style="rhombus;whiteSpace=wrap;html=1;fontSize=16;" vertex="1" parent="1">
          <mxGeometry x="328.5" y="262" width="181" height="80" as="geometry" />
        </mxCell>
        <mxCell id="SJ_4YM6VwGpysh3a31Bf-82" value="" style="edgeStyle=none;curved=1;rounded=0;orthogonalLoop=1;jettySize=auto;html=1;fontSize=12;startSize=8;endSize=8;" edge="1" parent="1" source="SJ_4YM6VwGpysh3a31Bf-79" target="SJ_4YM6VwGpysh3a31Bf-75">
          <mxGeometry relative="1" as="geometry" />
        </mxCell>
        <mxCell id="SJ_4YM6VwGpysh3a31Bf-79" value="sw1이 눌렸나?" style="rhombus;whiteSpace=wrap;html=1;fontSize=16;" vertex="1" parent="1">
          <mxGeometry x="328.5" y="395" width="181" height="80" as="geometry" />
        </mxCell>
        <mxCell id="SJ_4YM6VwGpysh3a31Bf-85" value="" style="edgeStyle=segmentEdgeStyle;endArrow=classic;html=1;curved=0;rounded=0;endSize=8;startSize=8;fontSize=12;exitX=0;exitY=0.5;exitDx=0;exitDy=0;entryX=0;entryY=0.5;entryDx=0;entryDy=0;" edge="1" parent="1" source="SJ_4YM6VwGpysh3a31Bf-8" target="SJ_4YM6VwGpysh3a31Bf-2">
          <mxGeometry width="50" height="50" relative="1" as="geometry">
            <mxPoint x="429.5" y="158" as="sourcePoint" />
            <mxPoint x="337" y="46" as="targetPoint" />
            <Array as="points">
              <mxPoint x="252" y="169" />
              <mxPoint x="252" y="46" />
            </Array>
          </mxGeometry>
        </mxCell>
        <mxCell id="SJ_4YM6VwGpysh3a31Bf-87" value="" style="edgeStyle=segmentEdgeStyle;endArrow=classic;html=1;curved=0;rounded=0;endSize=8;startSize=8;fontSize=12;exitX=-0.033;exitY=0.512;exitDx=0;exitDy=0;exitPerimeter=0;" edge="1" parent="1" source="SJ_4YM6VwGpysh3a31Bf-77">
          <mxGeometry width="50" height="50" relative="1" as="geometry">
            <mxPoint x="559" y="297" as="sourcePoint" />
            <mxPoint x="252" y="170" as="targetPoint" />
          </mxGeometry>
        </mxCell>
        <mxCell id="SJ_4YM6VwGpysh3a31Bf-88" value="" style="edgeStyle=segmentEdgeStyle;endArrow=classic;html=1;curved=0;rounded=0;endSize=8;startSize=8;fontSize=12;exitX=0.5;exitY=0;exitDx=0;exitDy=0;" edge="1" parent="1" source="SJ_4YM6VwGpysh3a31Bf-29">
          <mxGeometry width="50" height="50" relative="1" as="geometry">
            <mxPoint x="429" y="272" as="sourcePoint" />
            <mxPoint x="479" y="45" as="targetPoint" />
            <Array as="points">
              <mxPoint x="659" y="45" />
            </Array>
          </mxGeometry>
        </mxCell>
        <mxCell id="SJ_4YM6VwGpysh3a31Bf-89" value="아니오" style="text;html=1;align=center;verticalAlign=middle;resizable=0;points=[];autosize=1;strokeColor=none;fillColor=none;fontSize=16;" vertex="1" parent="1">
          <mxGeometry x="573" y="392" width="66" height="31" as="geometry" />
        </mxCell>
        <mxCell id="SJ_4YM6VwGpysh3a31Bf-90" value="" style="edgeStyle=segmentEdgeStyle;endArrow=classic;html=1;curved=0;rounded=0;endSize=8;startSize=8;fontSize=12;exitX=1;exitY=0.5;exitDx=0;exitDy=0;entryX=0.5;entryY=1;entryDx=0;entryDy=0;" edge="1" parent="1" source="SJ_4YM6VwGpysh3a31Bf-79" target="SJ_4YM6VwGpysh3a31Bf-33">
          <mxGeometry width="50" height="50" relative="1" as="geometry">
            <mxPoint x="523" y="431" as="sourcePoint" />
            <mxPoint x="573" y="381" as="targetPoint" />
            <Array as="points">
              <mxPoint x="658" y="435" />
            </Array>
          </mxGeometry>
        </mxCell>
        <mxCell id="SJ_4YM6VwGpysh3a31Bf-96" value="" style="edgeStyle=none;curved=1;rounded=0;orthogonalLoop=1;jettySize=auto;html=1;fontSize=12;startSize=8;endSize=8;" edge="1" parent="1" source="SJ_4YM6VwGpysh3a31Bf-91" target="SJ_4YM6VwGpysh3a31Bf-93">
          <mxGeometry relative="1" as="geometry" />
        </mxCell>
        <mxCell id="SJ_4YM6VwGpysh3a31Bf-91" value="sw2가 눌렸나?" style="rhombus;whiteSpace=wrap;html=1;fontSize=16;" vertex="1" parent="1">
          <mxGeometry x="328.5" y="617" width="181" height="80" as="geometry" />
        </mxCell>
        <mxCell id="SJ_4YM6VwGpysh3a31Bf-93" value="sw1이 눌렸나?" style="rhombus;whiteSpace=wrap;html=1;fontSize=16;" vertex="1" parent="1">
          <mxGeometry x="579" y="617" width="181" height="80" as="geometry" />
        </mxCell>
        <mxCell id="SJ_4YM6VwGpysh3a31Bf-94" value="" style="edgeStyle=segmentEdgeStyle;endArrow=classic;html=1;curved=0;rounded=0;endSize=8;startSize=8;fontSize=12;exitX=0;exitY=0.5;exitDx=0;exitDy=0;" edge="1" parent="1" source="SJ_4YM6VwGpysh3a31Bf-91">
          <mxGeometry width="50" height="50" relative="1" as="geometry">
            <mxPoint x="202" y="355" as="sourcePoint" />
            <mxPoint x="252" y="305" as="targetPoint" />
            <Array as="points">
              <mxPoint x="252" y="657" />
            </Array>
          </mxGeometry>
        </mxCell>
        <mxCell id="SJ_4YM6VwGpysh3a31Bf-95" value="예" style="text;html=1;align=center;verticalAlign=middle;resizable=0;points=[];autosize=1;strokeColor=none;fillColor=none;fontSize=16;" vertex="1" parent="1">
          <mxGeometry x="288" y="614" width="34" height="31" as="geometry" />
        </mxCell>
        <mxCell id="SJ_4YM6VwGpysh3a31Bf-99" value="아니오" style="text;html=1;align=center;verticalAlign=middle;resizable=0;points=[];autosize=1;strokeColor=none;fillColor=none;fontSize=16;" vertex="1" parent="1">
          <mxGeometry x="509.5" y="610" width="66" height="31" as="geometry" />
        </mxCell>
        <mxCell id="SJ_4YM6VwGpysh3a31Bf-100" value="" style="edgeStyle=segmentEdgeStyle;endArrow=classic;html=1;curved=0;rounded=0;endSize=8;startSize=8;fontSize=12;exitX=0.5;exitY=0;exitDx=0;exitDy=0;" edge="1" parent="1" source="SJ_4YM6VwGpysh3a31Bf-93">
          <mxGeometry width="50" height="50" relative="1" as="geometry">
            <mxPoint x="597.5" y="597" as="sourcePoint" />
            <mxPoint x="479" y="545" as="targetPoint" />
            <Array as="points">
              <mxPoint x="670" y="545" />
            </Array>
          </mxGeometry>
        </mxCell>
        <mxCell id="SJ_4YM6VwGpysh3a31Bf-101" value="아니오" style="text;html=1;align=center;verticalAlign=middle;resizable=0;points=[];autosize=1;strokeColor=none;fillColor=none;fontSize=16;" vertex="1" parent="1">
          <mxGeometry x="683" y="565" width="66" height="31" as="geometry" />
        </mxCell>
        <mxCell id="SJ_4YM6VwGpysh3a31Bf-108" value="" style="edgeStyle=elbowEdgeStyle;elbow=vertical;endArrow=classic;html=1;curved=0;rounded=0;endSize=8;startSize=8;fontSize=12;exitX=0.5;exitY=1;exitDx=0;exitDy=0;" edge="1" parent="1" source="SJ_4YM6VwGpysh3a31Bf-93">
          <mxGeometry width="50" height="50" relative="1" as="geometry">
            <mxPoint x="204" y="706" as="sourcePoint" />
            <mxPoint x="254" y="656" as="targetPoint" />
            <Array as="points">
              <mxPoint x="251" y="758" />
            </Array>
          </mxGeometry>
        </mxCell>
        <mxCell id="SJ_4YM6VwGpysh3a31Bf-109" value="예" style="text;html=1;align=center;verticalAlign=middle;resizable=0;points=[];autosize=1;strokeColor=none;fillColor=none;fontSize=16;" vertex="1" parent="1">
          <mxGeometry x="623" y="712" width="34" height="31" as="geometry" />
        </mxCell>
      </root>
    </mxGraphModel>
  </diagram>
</mxfile>
